<svg xmlns="http://www.w3.org/2000/svg" viewBox="0 0 295.63 39.44"><defs><style>.cls-1{fill:#fff;}</style></defs><title>Asset 1</title><g id="Layer_2" data-name="Layer 2"><g id="Layer_1-2" data-name="Layer 1"><rect class="cls-1" x="36.99" y="1.02" width="9.54" height="37.37"/><polygon class="cls-1" points="116.45 8.68 116.45 1.02 88.06 1.02 88.06 38.38 117.06 38.38 117.06 30.75 97.62 30.75 97.62 22.76 114.83 22.76 114.83 15.28 97.62 15.28 97.62 8.68 116.45 8.68"/><polygon class="cls-1" points="141.35 38.28 141.35 8.5 152.06 8.5 152.06 0.91 121.08 0.91 121.08 8.5 131.78 8.5 131.78 38.28 141.35 38.28"/><polygon class="cls-1" points="178.14 38.38 178.14 24.31 191.19 1.02 180.37 1.02 173.53 16.1 166.64 1.02 155.92 1.02 168.83 24.31 168.83 38.38 178.14 38.38"/><path class="cls-1" d="M215.85,31.44a8.72,8.72,0,0,1-4.52,1,7.47,7.47,0,0,1-5.2-1.62,6.42,6.42,0,0,1-1.87-4.8h-9.18q.42,6.78,4.23,10.1t11.09,3.35q7.69,0,12-3.11a10.11,10.11,0,0,0,4.27-8.69,10.18,10.18,0,0,0-.94-4.42A9.88,9.88,0,0,0,223,19.76q-1.77-1.43-8.88-3.73l-.38-.13-1.9-.6c-4.59-1.47-6.87-3-6.87-4.7a2.82,2.82,0,0,1,1.44-2.42,6.69,6.69,0,0,1,3.75-.95,6.81,6.81,0,0,1,4.42,1.24,5.52,5.52,0,0,1,1.84,3.85h9a11.11,11.11,0,0,0-3.95-9Q217.51,0,210.75,0t-10.9,3.17a10.27,10.27,0,0,0-4,8.52,9.59,9.59,0,0,0,2.1,6.12A14.24,14.24,0,0,0,204.06,22c1.85.75,4.14,1.52,6.84,2.32a35.44,35.44,0,0,1,5.1,1.74,2.44,2.44,0,0,1,1.06,1.05,3.22,3.22,0,0,1,.38,1.59A3,3,0,0,1,215.85,31.44Z"/><rect class="cls-1" x="231.01" y="1.02" width="9.54" height="37.37"/><polygon class="cls-1" points="254.78 38.23 261.12 27.38 267.39 38.23 278.43 38.23 266.25 19.05 277.74 0.87 266.82 0.87 261.12 10.86 255.38 0.87 244.48 0.87 255.87 19.05 243.82 38.23 254.78 38.23"/><polygon class="cls-1" points="9.26 38.38 9.26 16.2 22.09 38.38 32.43 38.38 32.43 1.02 23.19 1.02 23.19 22.98 10.52 1.03 0 1.02 0 38.38 5.39 38.38 9.26 38.38"/><polygon class="cls-1" points="60.41 38.38 60.41 16.2 73.24 38.38 83.56 38.38 83.56 1.02 74.34 1.02 74.34 22.98 61.67 1.03 51.15 1.02 51.15 38.38 56.53 38.38 60.41 38.38"/><path class="cls-1" d="M289.23,38.23a6.4,6.4,0,1,1,6.4-6.4A6.41,6.41,0,0,1,289.23,38.23Zm0-12.28a5.88,5.88,0,1,0,5.88,5.88A5.89,5.89,0,0,0,289.23,26Z"/><path class="cls-1" d="M289.46,31.84c.24.34.46.63.65.88l.6.82c.22.3.41.58.6.83l.64.89-.54.12-2.53-3.48h-1.11v3.41h-.52V27.88H289a2.54,2.54,0,0,1,1.67.51,1.75,1.75,0,0,1,.63,1.45,2.05,2.05,0,0,1-.14.78,1.87,1.87,0,0,1-.4.59,2.36,2.36,0,0,1-.6.41A2.6,2.6,0,0,1,289.46,31.84Zm.9-3.11a2,2,0,0,0-1.33-.38h-1.24v3.09h1.1a2.26,2.26,0,0,0,1.42-.4,1.39,1.39,0,0,0,.52-1.17A1.42,1.42,0,0,0,290.36,28.73Z"/></g></g></svg>